<mxfile host="app.diagrams.net" agent="Mozilla/5.0 (Windows NT 10.0; Win64; x64) AppleWebKit/537.36 (KHTML, like Gecko) Chrome/133.0.0.0 Safari/537.36 OPR/118.0.0.0" version="27.0.6">
  <diagram name="Page-1" id="RKXILUwSm5xGA8c1OW72">
    <mxGraphModel dx="1749" dy="1038" grid="1" gridSize="10" guides="1" tooltips="1" connect="1" arrows="1" fold="1" page="1" pageScale="1" pageWidth="850" pageHeight="1100" math="0" shadow="0">
      <root>
        <mxCell id="0" />
        <mxCell id="1" parent="0" />
        <mxCell id="KIqZW3CAoQl5uqi2JQVd-8" style="edgeStyle=orthogonalEdgeStyle;rounded=0;orthogonalLoop=1;jettySize=auto;html=1;entryX=0.5;entryY=1;entryDx=0;entryDy=0;exitX=1;exitY=0.5;exitDx=0;exitDy=0;startArrow=classic;startFill=1;" edge="1" parent="1" source="KIqZW3CAoQl5uqi2JQVd-1" target="KIqZW3CAoQl5uqi2JQVd-5">
          <mxGeometry relative="1" as="geometry">
            <mxPoint x="630" y="450" as="sourcePoint" />
          </mxGeometry>
        </mxCell>
        <mxCell id="KIqZW3CAoQl5uqi2JQVd-1" value="Backend Router" style="rounded=0;whiteSpace=wrap;html=1;" vertex="1" parent="1">
          <mxGeometry x="380" y="570" width="120" height="60" as="geometry" />
        </mxCell>
        <mxCell id="KIqZW3CAoQl5uqi2JQVd-16" style="edgeStyle=orthogonalEdgeStyle;rounded=0;orthogonalLoop=1;jettySize=auto;html=1;startArrow=classic;startFill=1;" edge="1" parent="1" source="KIqZW3CAoQl5uqi2JQVd-5" target="KIqZW3CAoQl5uqi2JQVd-15">
          <mxGeometry relative="1" as="geometry" />
        </mxCell>
        <mxCell id="KIqZW3CAoQl5uqi2JQVd-5" value="API Cilent Layer" style="rounded=0;whiteSpace=wrap;html=1;" vertex="1" parent="1">
          <mxGeometry x="520" y="420" width="120" height="60" as="geometry" />
        </mxCell>
        <mxCell id="KIqZW3CAoQl5uqi2JQVd-14" value="HTTP request" style="text;html=1;align=center;verticalAlign=middle;resizable=0;points=[];autosize=1;strokeColor=none;fillColor=none;" vertex="1" parent="1">
          <mxGeometry x="481" y="510" width="100" height="30" as="geometry" />
        </mxCell>
        <mxCell id="KIqZW3CAoQl5uqi2JQVd-15" value="UI" style="rounded=0;whiteSpace=wrap;html=1;" vertex="1" parent="1">
          <mxGeometry x="700" y="420" width="120" height="60" as="geometry" />
        </mxCell>
        <mxCell id="KIqZW3CAoQl5uqi2JQVd-19" style="edgeStyle=orthogonalEdgeStyle;rounded=0;orthogonalLoop=1;jettySize=auto;html=1;entryX=0;entryY=0.5;entryDx=0;entryDy=0;startArrow=classic;startFill=1;" edge="1" parent="1" source="KIqZW3CAoQl5uqi2JQVd-17" target="KIqZW3CAoQl5uqi2JQVd-1">
          <mxGeometry relative="1" as="geometry" />
        </mxCell>
        <mxCell id="KIqZW3CAoQl5uqi2JQVd-17" value="Backend Service Layer" style="rounded=0;whiteSpace=wrap;html=1;" vertex="1" parent="1">
          <mxGeometry x="260" y="420" width="120" height="60" as="geometry" />
        </mxCell>
        <mxCell id="KIqZW3CAoQl5uqi2JQVd-20" style="edgeStyle=orthogonalEdgeStyle;rounded=0;orthogonalLoop=1;jettySize=auto;html=1;entryX=0;entryY=0.5;entryDx=0;entryDy=0;startArrow=classic;startFill=1;" edge="1" parent="1" source="KIqZW3CAoQl5uqi2JQVd-18" target="KIqZW3CAoQl5uqi2JQVd-17">
          <mxGeometry relative="1" as="geometry" />
        </mxCell>
        <mxCell id="KIqZW3CAoQl5uqi2JQVd-18" value="Database" style="rounded=0;whiteSpace=wrap;html=1;" vertex="1" parent="1">
          <mxGeometry x="30" y="420" width="120" height="60" as="geometry" />
        </mxCell>
        <mxCell id="KIqZW3CAoQl5uqi2JQVd-21" value="truy vấn dữ liệu" style="text;html=1;align=center;verticalAlign=middle;resizable=0;points=[];autosize=1;strokeColor=none;fillColor=none;" vertex="1" parent="1">
          <mxGeometry x="150" y="418" width="110" height="30" as="geometry" />
        </mxCell>
        <mxCell id="KIqZW3CAoQl5uqi2JQVd-22" value="gọi logic" style="text;html=1;align=center;verticalAlign=middle;resizable=0;points=[];autosize=1;strokeColor=none;fillColor=none;" vertex="1" parent="1">
          <mxGeometry x="320" y="510" width="70" height="30" as="geometry" />
        </mxCell>
        <mxCell id="KIqZW3CAoQl5uqi2JQVd-23" value="gọi API" style="text;html=1;align=center;verticalAlign=middle;resizable=0;points=[];autosize=1;strokeColor=none;fillColor=none;" vertex="1" parent="1">
          <mxGeometry x="640" y="418" width="60" height="30" as="geometry" />
        </mxCell>
      </root>
    </mxGraphModel>
  </diagram>
</mxfile>
